<svg xmlns="http://www.w3.org/2000/svg" width="24px" height="24px" viewBox="0 0 24 24" version="1.1">
    <path style=" stroke:none;fill-rule:nonzero;fill:rgb(0%,0%,0%);fill-opacity:1;"
          d="M 14.4375 1.476562 C 13.179688 1.734375 12.132812 2.570312 11.582031 3.757812 C 11.296875 4.367188 11.230469 4.703125 11.230469 5.4375 C 11.234375 5.929688 11.257812 6.15625 11.335938 6.4375 C 11.390625 6.636719 11.75 7.484375 12.136719 8.320312 L 12.839844 9.84375 L 12.589844 10.238281 C 12.257812 10.765625 12.078125 11.207031 12.140625 11.363281 C 12.191406 11.5 12.359375 11.625 12.496094 11.625 C 12.660156 11.625 12.78125 11.484375 13.007812 11.023438 C 14.550781 7.925781 18.707031 7.238281 21.148438 9.679688 C 22.726562 11.253906 23.117188 13.554688 22.152344 15.539062 C 21.757812 16.339844 21.207031 17 20.511719 17.488281 L 20.1875 17.71875 L 18.84375 17.71875 C 17.550781 17.71875 17.492188 17.722656 17.371094 17.816406 C 17.199219 17.953125 17.199219 18.234375 17.371094 18.371094 C 17.492188 18.464844 17.550781 18.46875 18.933594 18.46875 L 20.367188 18.46875 L 20.648438 18.300781 C 21.042969 18.0625 21.4375 17.738281 21.824219 17.335938 C 23.65625 15.425781 23.960938 12.539062 22.570312 10.246094 C 22.453125 10.050781 22.359375 9.859375 22.375 9.828125 C 22.386719 9.796875 22.703125 9.109375 23.078125 8.296875 C 23.910156 6.492188 23.972656 6.289062 23.972656 5.4375 C 23.972656 4.703125 23.902344 4.363281 23.621094 3.757812 C 23.1875 2.828125 22.410156 2.066406 21.523438 1.707031 C 20.820312 1.425781 20.957031 1.433594 17.71875 1.425781 C 15.394531 1.414062 14.675781 1.425781 14.4375 1.476562 Z M 20.6875 2.230469 C 21.871094 2.5 22.820312 3.40625 23.140625 4.59375 C 23.273438 5.070312 23.25 5.921875 23.101562 6.375 C 22.964844 6.777344 21.835938 9.238281 21.792969 9.21875 C 21.777344 9.214844 21.613281 9.070312 21.425781 8.902344 L 21.085938 8.585938 L 21.628906 7.421875 C 22.199219 6.179688 22.3125 5.855469 22.3125 5.4375 C 22.3125 4.824219 22.082031 4.265625 21.648438 3.816406 C 21.160156 3.304688 20.625 3.09375 19.84375 3.09375 C 19.386719 3.09375 19.34375 3.101562 19.242188 3.210938 C 19.09375 3.355469 19.09375 3.519531 19.238281 3.6875 C 19.34375 3.816406 19.375 3.820312 19.882812 3.847656 C 20.296875 3.867188 20.460938 3.898438 20.628906 3.980469 C 20.976562 4.144531 21.214844 4.378906 21.382812 4.726562 C 21.523438 5.007812 21.539062 5.078125 21.539062 5.4375 L 21.535156 5.835938 L 21 7 C 20.597656 7.871094 20.441406 8.15625 20.390625 8.136719 C 20.351562 8.128906 20.132812 8.035156 19.898438 7.929688 C 19.214844 7.632812 18.605469 7.496094 17.808594 7.46875 C 16.78125 7.429688 15.992188 7.578125 15.101562 7.992188 C 14.910156 8.085938 14.746094 8.152344 14.742188 8.148438 C 14.667969 8.042969 13.726562 5.914062 13.683594 5.75 C 13.574219 5.304688 13.730469 4.726562 14.054688 4.355469 C 14.132812 4.261719 14.335938 4.117188 14.492188 4.027344 L 14.789062 3.867188 L 16.570312 3.851562 C 17.550781 3.847656 18.398438 3.835938 18.453125 3.820312 C 18.605469 3.789062 18.75 3.613281 18.75 3.464844 C 18.75 3.398438 18.707031 3.285156 18.652344 3.214844 L 18.558594 3.09375 L 16.714844 3.09375 C 15.167969 3.09375 14.835938 3.109375 14.621094 3.167969 C 13.773438 3.417969 13.09375 4.144531 12.9375 4.964844 C 12.8125 5.632812 12.886719 5.925781 13.546875 7.355469 C 13.828125 7.964844 14.0625 8.488281 14.070312 8.515625 C 14.089844 8.585938 13.398438 9.195312 13.355469 9.148438 C 13.285156 9.070312 12.136719 6.511719 12.0625 6.257812 C 12 6.046875 11.976562 5.832031 11.980469 5.390625 C 11.980469 4.878906 12 4.757812 12.113281 4.429688 C 12.492188 3.308594 13.34375 2.523438 14.460938 2.246094 C 14.75 2.171875 15.097656 2.160156 17.570312 2.160156 C 19.964844 2.15625 20.394531 2.164062 20.6875 2.230469 Z M 20.6875 2.230469 "/>
    <path style=" stroke:none;fill-rule:nonzero;fill:rgb(0%,0%,0%);fill-opacity:1;"
          d="M 4.03125 8.226562 C 3.515625 8.351562 3.117188 8.5625 2.457031 9.074219 C 0.601562 10.503906 -0.382812 13.226562 0.164062 15.402344 C 0.335938 16.09375 0.867188 16.898438 1.382812 17.25 C 1.597656 17.398438 3.953125 18.496094 4.359375 18.636719 C 4.5625 18.707031 4.738281 18.726562 5.179688 18.722656 C 5.664062 18.722656 5.796875 18.703125 6.136719 18.589844 C 6.582031 18.441406 6.75 18.308594 6.75 18.09375 C 6.75 17.929688 6.570312 17.71875 6.429688 17.71875 C 6.378906 17.71875 6.191406 17.773438 6.019531 17.839844 C 5.421875 18.066406 4.75 18.039062 4.210938 17.761719 C 3.5625 17.433594 3.113281 16.570312 3.019531 15.492188 C 2.996094 15.210938 2.960938 15.089844 2.890625 15.007812 C 2.769531 14.878906 2.535156 14.875 2.386719 14.996094 C 2.28125 15.078125 2.273438 15.121094 2.277344 15.453125 C 2.28125 15.851562 2.394531 16.433594 2.535156 16.789062 C 2.582031 16.917969 2.609375 17.015625 2.601562 17.015625 C 2.585938 17.015625 2.417969 16.941406 2.226562 16.851562 C 1.832031 16.664062 1.398438 16.289062 1.175781 15.941406 C 0.664062 15.148438 0.617188 13.695312 1.054688 12.390625 C 1.476562 11.128906 2.257812 10.078125 3.289062 9.390625 C 3.773438 9.066406 4.101562 8.949219 4.59375 8.921875 C 5.078125 8.886719 5.394531 8.953125 5.859375 9.164062 C 6.183594 9.3125 6.203125 9.328125 6.09375 9.367188 C 5.03125 9.78125 4.097656 10.507812 3.472656 11.410156 C 3.019531 12.066406 2.488281 13.316406 2.410156 13.917969 C 2.382812 14.125 2.390625 14.160156 2.5 14.269531 C 2.746094 14.515625 3.050781 14.394531 3.140625 14.007812 C 3.851562 10.992188 6.664062 9.015625 8.296875 10.382812 C 8.75 10.761719 9.085938 11.363281 9.164062 11.949219 C 9.21875 12.355469 9.507812 12.542969 9.78125 12.351562 C 9.929688 12.25 9.953125 12.0625 9.867188 11.644531 C 9.707031 10.871094 9.1875 10.070312 8.570312 9.640625 C 8.21875 9.398438 5.84375 8.316406 5.480469 8.226562 C 5.113281 8.140625 4.382812 8.140625 4.03125 8.226562 Z M 4.03125 8.226562 "/>
    <path style=" stroke:none;fill-rule:nonzero;fill:rgb(0%,0%,0%);fill-opacity:1;"
          d="M 16.851562 10.683594 C 16.410156 10.808594 15.988281 11.058594 15.65625 11.390625 C 15.371094 11.675781 15.046875 12.183594 15.046875 12.34375 C 15.046875 12.488281 15.15625 12.652344 15.285156 12.707031 C 15.507812 12.796875 15.675781 12.695312 15.847656 12.371094 C 16.167969 11.78125 16.785156 11.390625 17.460938 11.351562 C 18.398438 11.300781 19.152344 11.816406 19.453125 12.707031 C 19.667969 13.335938 19.503906 14.125 19.054688 14.617188 C 18.722656 14.992188 18.113281 15.28125 17.675781 15.28125 C 17.382812 15.28125 17.1875 15.539062 17.296875 15.796875 C 17.410156 16.070312 17.832031 16.097656 18.484375 15.867188 C 20.046875 15.324219 20.757812 13.503906 19.976562 12.027344 C 19.640625 11.386719 18.964844 10.851562 18.253906 10.664062 C 17.890625 10.570312 17.210938 10.578125 16.851562 10.683594 Z M 16.851562 10.683594 "/>
    <path style=" stroke:none;fill-rule:nonzero;fill:rgb(0%,0%,0%);fill-opacity:1;"
          d="M 11.210938 12.074219 C 10.496094 12.230469 9.765625 12.652344 9.09375 13.296875 C 8.839844 13.539062 8.625 13.734375 8.609375 13.734375 C 8.597656 13.734375 8.15625 13.5 7.632812 13.214844 C 7.105469 12.929688 6.617188 12.675781 6.539062 12.652344 C 6.15625 12.539062 5.582031 12.929688 5.320312 13.476562 C 5.171875 13.800781 5.109375 14.320312 5.199219 14.585938 C 5.28125 14.835938 5.433594 14.953125 6.421875 15.492188 C 6.921875 15.769531 7.339844 16.003906 7.351562 16.007812 C 7.359375 16.015625 7.3125 16.238281 7.246094 16.5 C 7.007812 17.445312 6.988281 18.417969 7.199219 19.238281 C 7.382812 19.953125 7.894531 20.738281 8.421875 21.097656 C 8.632812 21.25 10.96875 22.335938 11.367188 22.476562 C 11.5 22.523438 11.804688 22.570312 12.046875 22.578125 C 13.082031 22.636719 14.128906 22.15625 15.09375 21.1875 C 15.957031 20.328125 16.601562 19.097656 16.882812 17.796875 C 17.035156 17.082031 17.023438 16.039062 16.859375 15.414062 C 16.644531 14.601562 16.175781 13.875 15.625 13.496094 C 15.320312 13.285156 12.820312 12.144531 12.496094 12.070312 C 12.144531 11.984375 11.605469 11.984375 11.210938 12.074219 Z M 12.765625 12.957031 C 12.988281 13.054688 13.171875 13.148438 13.171875 13.167969 C 13.171875 13.179688 13.035156 13.246094 12.871094 13.304688 C 12.402344 13.472656 11.75 13.925781 11.222656 14.457031 C 10.5625 15.121094 10.101562 15.839844 9.71875 16.804688 C 9.253906 17.976562 9.1875 19.644531 9.5625 20.640625 L 9.648438 20.863281 L 9.546875 20.832031 C 9.25 20.738281 8.769531 20.445312 8.558594 20.230469 C 7.074219 18.710938 7.859375 15.089844 10.03125 13.445312 C 10.667969 12.957031 11.273438 12.742188 11.929688 12.765625 C 12.296875 12.777344 12.402344 12.800781 12.765625 12.957031 Z M 7.257812 13.859375 C 7.710938 14.109375 8.101562 14.324219 8.125 14.34375 C 8.140625 14.359375 8.0625 14.539062 7.945312 14.746094 C 7.828125 14.949219 7.71875 15.15625 7.707031 15.195312 C 7.691406 15.242188 7.664062 15.28125 7.640625 15.28125 C 7.59375 15.28125 6.0625 14.457031 5.96875 14.382812 C 5.882812 14.316406 5.890625 14.046875 5.980469 13.835938 C 6.0625 13.640625 6.265625 13.40625 6.359375 13.40625 C 6.394531 13.40625 6.796875 13.613281 7.257812 13.859375 Z M 14.828125 13.921875 C 16.523438 14.558594 16.75 17.5 15.277344 19.78125 C 14.757812 20.59375 13.75 21.464844 13.050781 21.707031 C 12.484375 21.910156 11.746094 21.871094 11.277344 21.617188 C 10.71875 21.320312 10.226562 20.582031 10.125 19.898438 C 10.058594 19.472656 10.058594 18.582031 10.125 18.164062 C 10.304688 17.042969 10.921875 15.804688 11.714844 15.007812 C 12.75 13.960938 13.878906 13.566406 14.828125 13.921875 Z M 14.828125 13.921875 "/>
</svg>
