<svg xmlns="http://www.w3.org/2000/svg" width="24px" height="24px"
     viewBox="0 0 24 24" version="1.1">
  <path
    style=" stroke:none;fill-rule:nonzero;fill:rgb(0%,0%,0%);fill-opacity:1;"
    d="M 8.5625 0.796875 C 8.292969 0.867188 7.929688 1.0625 7.707031 1.273438 C 7.515625 1.453125 7.171875 2.035156 7.171875 2.183594 C 7.171875 2.234375 7.035156 2.25 6.511719 2.25 C 6.136719 2.25 5.765625 2.273438 5.664062 2.304688 C 5.441406 2.371094 5.09375 2.664062 5.015625 2.855469 L 4.960938 2.992188 L 2.929688 3.023438 L 2.617188 3.171875 C 2.179688 3.378906 1.90625 3.640625 1.695312 4.070312 L 1.523438 4.425781 L 1.523438 19.949219 L 1.695312 20.304688 C 1.90625 20.734375 2.179688 20.996094 2.617188 21.203125 L 2.929688 21.351562 L 6.226562 21.367188 L 9.515625 21.378906 L 9.632812 21.261719 C 9.789062 21.109375 9.789062 20.890625 9.632812 20.742188 L 9.519531 20.625 L 6.371094 20.625 C 4.035156 20.625 3.171875 20.609375 3.027344 20.570312 C 2.769531 20.492188 2.382812 20.105469 2.304688 19.847656 C 2.226562 19.566406 2.226562 4.808594 2.304688 4.527344 C 2.382812 4.269531 2.769531 3.882812 3.027344 3.804688 C 3.148438 3.773438 3.535156 3.75 4.050781 3.75 L 4.875 3.75 L 4.875 4.199219 C 4.875 4.449219 4.898438 4.738281 4.929688 4.847656 C 5.007812 5.105469 5.394531 5.492188 5.652344 5.570312 C 5.796875 5.609375 6.660156 5.625 9.007812 5.625 C 12.613281 5.625 12.460938 5.640625 12.8125 5.25 C 13.0625 4.96875 13.125 4.765625 13.125 4.199219 L 13.125 3.75 L 13.949219 3.75 C 14.464844 3.75 14.851562 3.773438 14.972656 3.804688 C 15.230469 3.882812 15.617188 4.269531 15.695312 4.527344 C 15.734375 4.667969 15.75 5.457031 15.75 7.496094 L 15.75 10.269531 L 15.867188 10.382812 C 16.015625 10.539062 16.234375 10.539062 16.386719 10.382812 L 16.503906 10.265625 L 16.492188 7.34375 L 16.476562 4.425781 L 16.304688 4.070312 C 16.09375 3.640625 15.820312 3.378906 15.382812 3.171875 L 15.070312 3.023438 L 13.039062 2.992188 L 12.984375 2.855469 C 12.90625 2.664062 12.558594 2.371094 12.335938 2.304688 C 12.234375 2.273438 11.863281 2.25 11.488281 2.25 C 10.964844 2.25 10.828125 2.234375 10.828125 2.183594 C 10.828125 2.152344 10.753906 1.972656 10.664062 1.796875 C 10.355469 1.175781 9.78125 0.800781 9.101562 0.769531 C 8.90625 0.757812 8.664062 0.773438 8.5625 0.796875 Z M 9.347656 1.554688 C 9.746094 1.671875 10.125 2.195312 10.125 2.621094 C 10.125 2.71875 10.167969 2.8125 10.242188 2.882812 C 10.355469 3 10.363281 3 11.25 3 C 12.136719 3 12.144531 3 12.257812 3.117188 C 12.371094 3.226562 12.375 3.25 12.375 3.9375 C 12.375 4.625 12.371094 4.648438 12.257812 4.757812 L 12.144531 4.875 L 5.855469 4.875 L 5.742188 4.757812 C 5.628906 4.648438 5.625 4.625 5.625 3.9375 C 5.625 3.25 5.628906 3.226562 5.742188 3.117188 C 5.855469 3 5.863281 3 6.75 3 C 7.636719 3 7.644531 3 7.757812 2.882812 C 7.832031 2.8125 7.875 2.71875 7.875 2.621094 C 7.875 2.328125 7.984375 2.089844 8.226562 1.851562 C 8.554688 1.519531 8.90625 1.429688 9.347656 1.554688 Z M 9.347656 1.554688 "/>
  <path
    style=" stroke:none;fill-rule:nonzero;fill:rgb(0%,0%,0%);fill-opacity:1;"
    d="M 3.867188 7.242188 L 3.75 7.355469 L 3.75 9.894531 L 3.867188 10.007812 L 3.980469 10.125 L 6.519531 10.125 L 6.632812 10.007812 L 6.75 9.894531 L 6.75 7.355469 L 6.632812 7.242188 L 6.519531 7.125 L 3.980469 7.125 Z M 6 8.625 L 6 9.375 L 4.5 9.375 L 4.5 7.875 L 6 7.875 Z M 6 8.625 "/>
  <path
    style=" stroke:none;fill-rule:nonzero;fill:rgb(0%,0%,0%);fill-opacity:1;"
    d="M 7.992188 7.242188 C 7.917969 7.3125 7.875 7.410156 7.875 7.5 C 7.875 7.589844 7.917969 7.6875 7.992188 7.757812 L 8.105469 7.875 L 14.019531 7.875 L 14.132812 7.757812 C 14.207031 7.6875 14.25 7.589844 14.25 7.5 C 14.25 7.410156 14.207031 7.3125 14.132812 7.242188 L 14.019531 7.125 L 8.105469 7.125 Z M 7.992188 7.242188 "/>
  <path
    style=" stroke:none;fill-rule:nonzero;fill:rgb(0%,0%,0%);fill-opacity:1;"
    d="M 7.992188 9.492188 C 7.917969 9.5625 7.875 9.660156 7.875 9.75 C 7.875 9.839844 7.917969 9.9375 7.992188 10.007812 L 8.105469 10.125 L 11.769531 10.125 L 11.882812 10.007812 C 11.957031 9.9375 12 9.839844 12 9.75 C 12 9.660156 11.957031 9.5625 11.882812 9.492188 L 11.769531 9.375 L 8.105469 9.375 Z M 7.992188 9.492188 "/>
  <path
    style=" stroke:none;fill-rule:nonzero;fill:rgb(0%,0%,0%);fill-opacity:1;"
    d="M 16.546875 11.3125 C 16.261719 11.390625 16.035156 11.535156 15.804688 11.785156 C 15.492188 12.121094 15.398438 12.34375 15.398438 12.75 C 15.398438 13.25 15.492188 13.390625 16.351562 14.265625 L 17.085938 15 L 15.664062 16.414062 L 14.25 17.835938 L 13.507812 17.101562 C 12.664062 16.257812 12.5 16.152344 11.996094 16.152344 C 11.605469 16.152344 11.253906 16.3125 10.953125 16.636719 C 10.621094 16.992188 10.523438 17.210938 10.523438 17.625 C 10.523438 18.023438 10.613281 18.242188 10.90625 18.5625 L 11.070312 18.75 L 10.90625 18.9375 C 10.613281 19.257812 10.523438 19.476562 10.523438 19.875 C 10.523438 20.273438 10.613281 20.492188 10.90625 20.816406 L 11.078125 21.003906 L 10.867188 21.226562 C 10.507812 21.589844 10.425781 21.859375 10.566406 22.1875 C 10.644531 22.375 11.414062 23.132812 11.59375 23.199219 C 11.910156 23.320312 12.167969 23.230469 12.523438 22.882812 L 12.746094 22.671875 L 12.933594 22.84375 C 13.257812 23.136719 13.476562 23.226562 13.875 23.226562 C 14.273438 23.226562 14.492188 23.136719 14.8125 22.84375 L 15 22.679688 L 15.1875 22.84375 C 15.507812 23.136719 15.726562 23.226562 16.125 23.226562 C 16.402344 23.226562 16.519531 23.203125 16.683594 23.113281 C 16.972656 22.960938 17.304688 22.636719 17.464844 22.351562 C 17.582031 22.132812 17.601562 22.050781 17.601562 21.75 C 17.597656 21.25 17.507812 21.109375 16.648438 20.234375 L 15.914062 19.5 L 17.335938 18.085938 L 18.75 16.664062 L 19.484375 17.398438 C 19.90625 17.8125 20.316406 18.179688 20.4375 18.238281 C 20.738281 18.394531 21.261719 18.394531 21.558594 18.238281 C 21.847656 18.085938 22.179688 17.761719 22.339844 17.476562 C 22.457031 17.257812 22.476562 17.175781 22.476562 16.875 C 22.476562 16.476562 22.382812 16.257812 22.09375 15.9375 L 21.929688 15.75 L 22.09375 15.5625 C 22.386719 15.242188 22.476562 15.023438 22.476562 14.625 C 22.476562 14.226562 22.386719 14.007812 22.09375 13.683594 L 21.921875 13.496094 L 22.132812 13.273438 C 22.492188 12.910156 22.574219 12.640625 22.433594 12.3125 C 22.355469 12.125 21.585938 11.367188 21.40625 11.300781 C 21.089844 11.179688 20.832031 11.269531 20.476562 11.617188 L 20.253906 11.828125 L 20.058594 11.648438 C 19.5 11.148438 18.75 11.148438 18.191406 11.648438 L 18 11.820312 L 17.808594 11.648438 C 17.445312 11.324219 16.960938 11.195312 16.546875 11.3125 Z M 19.425781 14.339844 L 21.726562 16.640625 L 21.726562 16.878906 C 21.726562 17.105469 21.710938 17.128906 21.488281 17.34375 C 21.230469 17.585938 21.074219 17.652344 20.875 17.601562 C 20.785156 17.582031 19.984375 16.8125 18.445312 15.277344 L 16.148438 12.984375 L 16.148438 12.753906 C 16.148438 12.539062 16.167969 12.5 16.359375 12.300781 C 16.617188 12.039062 16.707031 11.996094 16.941406 12.019531 C 17.113281 12.039062 17.273438 12.1875 19.425781 14.339844 Z M 19.351562 12.066406 C 19.421875 12.101562 19.984375 12.640625 20.601562 13.261719 L 21.726562 14.390625 L 21.726562 14.625 C 21.726562 14.832031 21.707031 14.878906 21.546875 15.03125 L 21.375 15.210938 L 18.542969 12.378906 L 18.636719 12.277344 C 18.863281 12.019531 19.121094 11.945312 19.351562 12.066406 Z M 21.5625 12.773438 L 21.375 12.960938 L 21.085938 12.671875 L 20.792969 12.375 L 21.160156 12 L 21.453125 12.289062 L 21.75 12.585938 Z M 17.929688 15.84375 L 18.210938 16.125 L 15.375 18.960938 L 15.085938 18.664062 L 14.789062 18.375 L 16.195312 16.96875 C 16.96875 16.195312 17.609375 15.5625 17.625 15.5625 C 17.640625 15.5625 17.773438 15.6875 17.929688 15.84375 Z M 14.550781 19.214844 L 16.851562 21.515625 L 16.851562 21.753906 C 16.851562 21.980469 16.835938 22.003906 16.613281 22.21875 C 16.355469 22.460938 16.199219 22.527344 16 22.476562 C 15.910156 22.457031 15.109375 21.6875 13.570312 20.152344 L 11.273438 17.859375 L 11.273438 17.628906 C 11.273438 17.414062 11.292969 17.375 11.484375 17.175781 C 11.742188 16.914062 11.832031 16.871094 12.066406 16.894531 C 12.238281 16.914062 12.398438 17.0625 14.550781 19.214844 Z M 13.054688 20.71875 L 14.460938 22.128906 L 14.289062 22.289062 C 14.089844 22.472656 13.9375 22.523438 13.75 22.476562 C 13.664062 22.457031 13.199219 22.03125 12.445312 21.277344 L 11.273438 20.109375 L 11.273438 19.878906 C 11.273438 19.679688 11.296875 19.621094 11.433594 19.480469 C 11.523438 19.386719 11.605469 19.3125 11.625 19.3125 C 11.640625 19.3125 12.28125 19.945312 13.054688 20.71875 Z M 11.929688 21.84375 L 12.207031 22.125 L 11.839844 22.5 L 11.546875 22.210938 L 11.25 21.917969 L 11.421875 21.742188 C 11.515625 21.640625 11.609375 21.5625 11.625 21.5625 C 11.640625 21.5625 11.773438 21.6875 11.929688 21.84375 Z M 11.929688 21.84375 "/>
  <path
    style=" stroke:none;fill-rule:nonzero;fill:rgb(0%,0%,0%);fill-opacity:1;"
    d="M 3.867188 11.742188 L 3.75 11.855469 L 3.75 14.394531 L 3.867188 14.507812 L 3.980469 14.625 L 6.519531 14.625 L 6.632812 14.507812 L 6.75 14.394531 L 6.75 11.855469 L 6.632812 11.742188 L 6.519531 11.625 L 3.980469 11.625 Z M 6 13.125 L 6 13.875 L 4.5 13.875 L 4.5 12.375 L 6 12.375 Z M 6 13.125 "/>
  <path
    style=" stroke:none;fill-rule:nonzero;fill:rgb(0%,0%,0%);fill-opacity:1;"
    d="M 7.992188 11.742188 C 7.917969 11.8125 7.875 11.910156 7.875 12 C 7.875 12.089844 7.917969 12.1875 7.992188 12.257812 L 8.105469 12.375 L 14.019531 12.375 L 14.132812 12.257812 C 14.207031 12.1875 14.25 12.089844 14.25 12 C 14.25 11.910156 14.207031 11.8125 14.132812 11.742188 L 14.019531 11.625 L 8.105469 11.625 Z M 7.992188 11.742188 "/>
  <path
    style=" stroke:none;fill-rule:nonzero;fill:rgb(0%,0%,0%);fill-opacity:1;"
    d="M 7.992188 13.992188 C 7.917969 14.0625 7.875 14.160156 7.875 14.25 C 7.875 14.339844 7.917969 14.4375 7.992188 14.507812 L 8.105469 14.625 L 11.769531 14.625 L 11.882812 14.507812 C 11.957031 14.4375 12 14.339844 12 14.25 C 12 14.160156 11.957031 14.0625 11.882812 13.992188 L 11.769531 13.875 L 8.105469 13.875 Z M 7.992188 13.992188 "/>
  <path
    style=" stroke:none;fill-rule:nonzero;fill:rgb(0%,0%,0%);fill-opacity:1;"
    d="M 3.867188 16.242188 L 3.75 16.355469 L 3.75 18.894531 L 3.867188 19.007812 L 3.980469 19.125 L 6.519531 19.125 L 6.632812 19.007812 L 6.75 18.894531 L 6.75 16.355469 L 6.632812 16.242188 L 6.519531 16.125 L 3.980469 16.125 Z M 6 17.625 L 6 18.375 L 4.5 18.375 L 4.5 16.875 L 6 16.875 Z M 6 17.625 "/>
  <path
    style=" stroke:none;fill-rule:nonzero;fill:rgb(0%,0%,0%);fill-opacity:1;"
    d="M 7.992188 16.242188 C 7.917969 16.3125 7.875 16.410156 7.875 16.5 C 7.875 16.589844 7.917969 16.6875 7.992188 16.757812 C 8.101562 16.871094 8.125 16.875 8.8125 16.875 C 9.5 16.875 9.523438 16.871094 9.632812 16.757812 C 9.707031 16.6875 9.75 16.589844 9.75 16.5 C 9.75 16.410156 9.707031 16.3125 9.632812 16.242188 C 9.523438 16.128906 9.5 16.125 8.8125 16.125 C 8.125 16.125 8.101562 16.128906 7.992188 16.242188 Z M 7.992188 16.242188 "/>
  <path
    style=" stroke:none;fill-rule:nonzero;fill:rgb(0%,0%,0%);fill-opacity:1;"
    d="M 7.992188 18.492188 C 7.917969 18.5625 7.875 18.660156 7.875 18.75 C 7.875 18.839844 7.917969 18.9375 7.992188 19.007812 C 8.101562 19.121094 8.125 19.125 8.8125 19.125 C 9.5 19.125 9.523438 19.121094 9.632812 19.007812 C 9.707031 18.9375 9.75 18.839844 9.75 18.75 C 9.75 18.660156 9.707031 18.5625 9.632812 18.492188 C 9.523438 18.378906 9.5 18.375 8.8125 18.375 C 8.125 18.375 8.101562 18.378906 7.992188 18.492188 Z M 7.992188 18.492188 "/>
</svg>
