<svg xmlns="http://www.w3.org/2000/svg" width="24px" height="24px" viewBox="0 0 24 24" version="1.1">
    <path style=" stroke:none;fill-rule:nonzero;fill:rgb(0%,0%,0%);fill-opacity:1;"
          d="M 7.640625 0.0507812 C 6.734375 0.15625 5.742188 0.4375 4.929688 0.820312 C 1.820312 2.296875 -0.132812 5.503906 0.015625 8.90625 C 0.0703125 10.191406 0.371094 11.339844 0.941406 12.46875 C 1.367188 13.304688 1.773438 13.859375 2.464844 14.574219 L 3.03125 15.15625 L 2.933594 15.371094 C 2.839844 15.582031 2.835938 15.65625 2.820312 17.820312 C 2.8125 19.25 2.828125 20.15625 2.855469 20.328125 C 2.960938 20.898438 3.320312 21.367188 3.835938 21.617188 C 4.125 21.765625 4.179688 21.773438 4.617188 21.773438 C 5.03125 21.773438 5.117188 21.757812 5.363281 21.640625 C 5.511719 21.570312 5.644531 21.515625 5.648438 21.515625 C 5.65625 21.515625 5.671875 21.78125 5.675781 22.109375 C 5.695312 22.648438 5.710938 22.738281 5.820312 22.96875 C 6.203125 23.738281 7.105469 24.160156 7.902344 23.929688 C 8.445312 23.773438 8.8125 23.460938 9.066406 22.921875 L 9.210938 22.617188 L 9.226562 21.5 L 9.242188 20.390625 L 17.578125 20.390625 L 17.578125 21.289062 C 17.578125 21.789062 17.597656 22.320312 17.625 22.472656 C 17.835938 23.765625 19.289062 24.40625 20.371094 23.691406 C 20.910156 23.328125 21.140625 22.859375 21.179688 22.039062 C 21.1875 21.75 21.210938 21.519531 21.230469 21.53125 C 21.628906 21.742188 21.734375 21.769531 22.195312 21.773438 C 22.617188 21.773438 22.691406 21.757812 22.953125 21.636719 C 23.3125 21.472656 23.671875 21.109375 23.851562 20.734375 L 23.976562 20.460938 L 23.976562 15.539062 L 23.828125 15.230469 C 23.53125 14.640625 22.972656 14.253906 22.335938 14.210938 C 21.988281 14.1875 21.546875 14.28125 21.355469 14.417969 C 21.304688 14.457031 21.25 14.484375 21.230469 14.484375 C 21.214844 14.484375 21.1875 14.347656 21.167969 14.175781 C 21.121094 13.71875 20.980469 13.398438 20.695312 13.085938 C 19.683594 11.996094 17.902344 12.519531 17.628906 13.988281 C 17.601562 14.140625 17.578125 14.6875 17.578125 15.195312 L 17.578125 16.125 L 15.164062 16.125 C 13.835938 16.125 12.75 16.117188 12.75 16.105469 C 12.75 16.09375 12.933594 15.964844 13.164062 15.816406 C 13.742188 15.4375 14.070312 15.179688 14.550781 14.71875 C 17.503906 11.878906 18 7.269531 15.722656 3.84375 C 13.945312 1.175781 10.785156 -0.304688 7.640625 0.0507812 Z M 9.414062 0.800781 C 12.027344 1.085938 14.347656 2.679688 15.53125 5.007812 C 16.925781 7.757812 16.621094 10.988281 14.742188 13.382812 C 14.019531 14.300781 13.085938 15.0625 12.070312 15.5625 C 11.054688 16.0625 10.824219 16.125 9.957031 16.125 L 9.234375 16.125 L 9.234375 15.34375 L 9.71875 15.261719 C 12.191406 14.832031 14.199219 13.117188 15.003906 10.734375 C 15.347656 9.734375 15.445312 8.398438 15.257812 7.40625 C 14.734375 4.632812 12.683594 2.523438 9.9375 1.9375 C 9.238281 1.785156 8.082031 1.765625 7.429688 1.894531 C 5.710938 2.222656 4.28125 3.078125 3.253906 4.386719 C 2.28125 5.625 1.808594 7.003906 1.808594 8.578125 C 1.8125 9.589844 1.972656 10.378906 2.371094 11.304688 C 2.796875 12.300781 3.664062 13.402344 4.507812 14.007812 L 4.753906 14.179688 L 4.433594 14.210938 C 4.21875 14.230469 4.011719 14.292969 3.816406 14.390625 L 3.515625 14.535156 L 3.265625 14.324219 C 2.699219 13.84375 1.9375 12.820312 1.550781 12.023438 C -0.140625 8.546875 0.929688 4.425781 4.105469 2.160156 C 4.859375 1.625 6.046875 1.109375 6.984375 0.914062 C 7.742188 0.753906 8.628906 0.710938 9.414062 0.800781 Z M 8.203125 2.835938 C 8.203125 3.050781 8.222656 3.117188 8.320312 3.210938 C 8.46875 3.367188 8.6875 3.367188 8.835938 3.210938 C 8.933594 3.117188 8.953125 3.050781 8.953125 2.832031 L 8.953125 2.5625 L 9.296875 2.59375 C 9.476562 2.609375 9.800781 2.667969 10.007812 2.71875 C 10.425781 2.828125 11.25 3.132812 11.25 3.179688 C 11.25 3.195312 11.199219 3.296875 11.132812 3.398438 C 10.988281 3.640625 10.984375 3.816406 11.132812 3.960938 C 11.34375 4.175781 11.59375 4.105469 11.785156 3.773438 C 11.863281 3.636719 11.933594 3.570312 11.96875 3.59375 C 12.378906 3.835938 13.332031 4.785156 13.566406 5.1875 C 13.585938 5.222656 13.515625 5.292969 13.382812 5.371094 C 13.050781 5.5625 12.980469 5.8125 13.195312 6.023438 C 13.339844 6.171875 13.515625 6.167969 13.757812 6.023438 C 13.859375 5.957031 13.960938 5.90625 13.976562 5.90625 C 14.023438 5.90625 14.328125 6.730469 14.4375 7.148438 C 14.488281 7.355469 14.546875 7.679688 14.5625 7.859375 L 14.59375 8.203125 L 14.324219 8.203125 C 14.105469 8.203125 14.039062 8.222656 13.945312 8.320312 C 13.871094 8.390625 13.828125 8.488281 13.828125 8.578125 C 13.828125 8.667969 13.871094 8.765625 13.945312 8.835938 C 14.039062 8.933594 14.105469 8.953125 14.324219 8.953125 L 14.59375 8.953125 L 14.5625 9.296875 C 14.527344 9.722656 14.339844 10.453125 14.152344 10.890625 C 14.078125 11.070312 14 11.230469 13.992188 11.242188 C 13.984375 11.253906 13.878906 11.207031 13.761719 11.136719 C 13.5 10.984375 13.339844 10.984375 13.195312 11.132812 C 12.980469 11.34375 13.050781 11.59375 13.382812 11.789062 L 13.597656 11.910156 L 13.507812 12.050781 C 13.226562 12.496094 12.496094 13.226562 12.054688 13.507812 L 11.910156 13.597656 L 11.789062 13.382812 C 11.59375 13.050781 11.34375 12.980469 11.132812 13.195312 C 10.984375 13.339844 10.988281 13.515625 11.132812 13.757812 C 11.199219 13.859375 11.25 13.960938 11.25 13.976562 C 11.25 14.082031 9.628906 14.578125 9.285156 14.578125 C 9.257812 14.578125 9.234375 14.484375 9.234375 14.351562 C 9.234375 13.4375 8.585938 12.65625 7.726562 12.523438 C 7.175781 12.441406 6.546875 12.636719 6.1875 13.007812 C 6.054688 13.144531 6.023438 13.15625 5.910156 13.109375 C 5.695312 13.03125 5.546875 13.101562 5.386719 13.359375 L 5.242188 13.59375 L 5.109375 13.515625 C 4.773438 13.316406 3.839844 12.382812 3.636719 12.046875 L 3.5625 11.910156 L 3.773438 11.785156 C 4.105469 11.59375 4.175781 11.34375 3.960938 11.132812 C 3.816406 10.984375 3.640625 10.988281 3.398438 11.132812 C 3.296875 11.199219 3.195312 11.25 3.179688 11.25 C 3.132812 11.25 2.828125 10.429688 2.722656 10.023438 C 2.671875 9.820312 2.617188 9.496094 2.597656 9.304688 L 2.5625 8.953125 L 2.832031 8.953125 C 3.050781 8.953125 3.117188 8.933594 3.210938 8.835938 C 3.285156 8.765625 3.328125 8.667969 3.328125 8.578125 C 3.328125 8.488281 3.285156 8.390625 3.210938 8.320312 C 3.117188 8.222656 3.050781 8.203125 2.832031 8.203125 L 2.5625 8.203125 L 2.59375 7.859375 C 2.609375 7.679688 2.667969 7.355469 2.71875 7.148438 C 2.828125 6.730469 3.132812 5.90625 3.179688 5.90625 C 3.195312 5.90625 3.296875 5.957031 3.398438 6.023438 C 3.640625 6.167969 3.816406 6.171875 3.960938 6.023438 C 4.175781 5.8125 4.105469 5.5625 3.773438 5.371094 C 3.636719 5.292969 3.570312 5.222656 3.59375 5.1875 C 3.835938 4.777344 4.785156 3.824219 5.1875 3.589844 C 5.222656 3.570312 5.292969 3.640625 5.371094 3.773438 C 5.5625 4.105469 5.8125 4.175781 6.023438 3.960938 C 6.171875 3.816406 6.167969 3.640625 6.023438 3.398438 C 5.957031 3.296875 5.90625 3.195312 5.90625 3.179688 C 5.90625 3.148438 6.511719 2.902344 6.820312 2.804688 C 7.117188 2.710938 7.765625 2.585938 7.984375 2.582031 L 8.203125 2.578125 Z M 7.71875 13.289062 C 7.941406 13.332031 8.230469 13.566406 8.351562 13.789062 L 8.460938 13.992188 L 8.476562 18.140625 C 8.484375 21.304688 8.476562 22.339844 8.433594 22.496094 C 8.316406 22.921875 7.867188 23.25 7.402344 23.25 C 7.148438 23.25 6.75 23.023438 6.585938 22.789062 L 6.445312 22.585938 L 6.429688 18.300781 C 6.421875 14.109375 6.421875 14.011719 6.515625 13.832031 C 6.636719 13.589844 6.960938 13.320312 7.167969 13.285156 C 7.261719 13.269531 7.359375 13.25 7.382812 13.242188 C 7.410156 13.234375 7.460938 13.234375 7.5 13.242188 C 7.539062 13.25 7.636719 13.269531 7.71875 13.289062 Z M 19.875 13.378906 C 20.15625 13.515625 20.371094 13.835938 20.414062 14.171875 C 20.429688 14.300781 20.4375 16.226562 20.429688 18.445312 L 20.414062 22.476562 L 20.3125 22.671875 C 20.128906 23.011719 19.75 23.25 19.382812 23.25 C 19.015625 23.25 18.636719 23.011719 18.453125 22.671875 L 18.351562 22.476562 L 18.351562 14.035156 L 18.472656 13.804688 C 18.613281 13.527344 18.875 13.328125 19.171875 13.269531 C 19.4375 13.222656 19.609375 13.246094 19.875 13.378906 Z M 5.007812 15.027344 C 5.226562 15.117188 5.417969 15.300781 5.546875 15.539062 C 5.648438 15.722656 5.648438 15.757812 5.648438 18 C 5.648438 20.242188 5.648438 20.277344 5.546875 20.460938 C 5.1875 21.125 4.375 21.25 3.851562 20.714844 C 3.570312 20.429688 3.5625 20.324219 3.5625 18 C 3.5625 15.636719 3.570312 15.570312 3.875 15.273438 C 3.976562 15.179688 4.128906 15.066406 4.21875 15.027344 C 4.433594 14.933594 4.785156 14.933594 5.007812 15.027344 Z M 22.761719 15.121094 C 22.925781 15.21875 23.023438 15.328125 23.117188 15.511719 L 23.25 15.757812 L 23.25 20.242188 L 23.117188 20.488281 C 22.941406 20.835938 22.683594 21.007812 22.316406 21.039062 C 21.980469 21.0625 21.75 20.992188 21.53125 20.796875 C 21.183594 20.492188 21.1875 20.546875 21.1875 18.007812 C 21.1875 15.570312 21.183594 15.601562 21.441406 15.300781 C 21.753906 14.925781 22.320312 14.84375 22.761719 15.121094 Z M 17.578125 18.257812 L 17.578125 19.640625 L 9.234375 19.640625 L 9.234375 16.875 L 17.578125 16.875 Z M 17.578125 18.257812 "/>
    <path style=" stroke:none;fill-rule:nonzero;fill:rgb(0%,0%,0%);fill-opacity:1;"
          d="M 8.320312 4.242188 L 8.203125 4.355469 L 8.203125 7.398438 L 8.082031 7.425781 C 7.917969 7.46875 7.5625 7.808594 7.449219 8.03125 C 7.109375 8.691406 7.496094 9.5625 8.222656 9.773438 C 8.609375 9.886719 9.039062 9.804688 9.375 9.558594 C 9.429688 9.519531 9.613281 9.609375 10.265625 9.988281 C 11.160156 10.515625 11.328125 10.5625 11.488281 10.363281 C 11.59375 10.238281 11.605469 9.988281 11.523438 9.882812 C 11.488281 9.839844 11.09375 9.59375 10.644531 9.335938 L 9.828125 8.867188 L 9.824219 8.550781 C 9.816406 8.324219 9.789062 8.171875 9.71875 8.039062 C 9.59375 7.808594 9.238281 7.46875 9.074219 7.425781 L 8.953125 7.398438 L 8.953125 4.355469 L 8.835938 4.242188 C 8.765625 4.167969 8.667969 4.125 8.578125 4.125 C 8.488281 4.125 8.390625 4.167969 8.320312 4.242188 Z M 8.8125 8.132812 C 8.960938 8.210938 9.09375 8.417969 9.09375 8.578125 C 9.09375 8.828125 8.828125 9.09375 8.578125 9.09375 C 8.328125 9.09375 8.0625 8.828125 8.0625 8.578125 C 8.0625 8.421875 8.195312 8.210938 8.335938 8.136719 C 8.5 8.042969 8.644531 8.042969 8.8125 8.132812 Z M 8.8125 8.132812 "/>
</svg>
